<svg width="20" height="18" viewBox="0 0 20 18" fill="none" xmlns="http://www.w3.org/2000/svg">
<path d="M3.33335 5.66383C3.19668 5.6603 3.09743 5.65239 3.0082 5.63464C2.34705 5.50313 1.83022 4.9863 1.69871 4.32515C1.66669 4.16415 1.66669 3.97055 1.66669 3.58333C1.66669 3.19612 1.66669 3.00251 1.69871 2.84152C1.83022 2.18037 2.34705 1.66354 3.0082 1.53202C3.1692 1.5 3.36281 1.5 3.75002 1.5H16.25C16.6372 1.5 16.8308 1.5 16.9918 1.53202C17.653 1.66354 18.1698 2.18037 18.3013 2.84152C18.3334 3.00251 18.3334 3.19612 18.3334 3.58333C18.3334 3.97055 18.3334 4.16415 18.3013 4.32515C18.1698 4.9863 17.653 5.50313 16.9918 5.63464C16.9026 5.65239 16.8034 5.6603 16.6667 5.66383M8.33335 9.83333H11.6667M3.33335 5.66667H16.6667V12.5C16.6667 13.9001 16.6667 14.6002 16.3942 15.135C16.1545 15.6054 15.7721 15.9878 15.3017 16.2275C14.7669 16.5 14.0668 16.5 12.6667 16.5H7.33335C5.93322 16.5 5.23316 16.5 4.69838 16.2275C4.22797 15.9878 3.84552 15.6054 3.60584 15.135C3.33335 14.6002 3.33335 13.9001 3.33335 12.5V5.66667Z" stroke="#414651" stroke-width="1.67" stroke-linecap="round" stroke-linejoin="round"/>
</svg>
