<svg width="16" height="20" viewBox="0 0 16 20" fill="none" xmlns="http://www.w3.org/2000/svg">
<path d="M9.66634 1.89063V5.33274C9.66634 5.79945 9.66634 6.03281 9.75717 6.21107C9.83706 6.36787 9.96455 6.49535 10.1213 6.57525C10.2996 6.66608 10.533 6.66608 10.9997 6.66608H14.4418M9.66634 14.166H4.66634M11.333 10.8327H4.66634M14.6663 8.32287V14.3327C14.6663 15.7328 14.6663 16.4329 14.3939 16.9677C14.1542 17.4381 13.7717 17.8205 13.3013 18.0602C12.7665 18.3327 12.0665 18.3327 10.6663 18.3327H5.33301C3.93288 18.3327 3.23281 18.3327 2.69803 18.0602C2.22763 17.8205 1.84517 17.4381 1.60549 16.9677C1.33301 16.4329 1.33301 15.7328 1.33301 14.3327V5.66602C1.33301 4.26588 1.33301 3.56582 1.60549 3.03104C1.84517 2.56063 2.22763 2.17818 2.69803 1.9385C3.23281 1.66602 3.93288 1.66602 5.33301 1.66602H8.00949C8.62096 1.66602 8.9267 1.66602 9.21442 1.73509C9.46951 1.79633 9.71337 1.89734 9.93705 2.03442C10.1893 2.18902 10.4055 2.40521 10.8379 2.83759L13.4948 5.49444C13.9271 5.92682 14.1433 6.14301 14.2979 6.3953C14.435 6.61898 14.536 6.86285 14.5973 7.11794C14.6663 7.40566 14.6663 7.71139 14.6663 8.32287Z" stroke="#0A0D12" stroke-width="1.67" stroke-linecap="round" stroke-linejoin="round"/>
</svg>
