<svg width="19" height="19" viewBox="0 0 19 19" fill="none" xmlns="http://www.w3.org/2000/svg">
<path d="M1.75 17.9167L6.37439 16.138C6.67017 16.0243 6.81807 15.9674 6.95643 15.8931C7.07933 15.8272 7.1965 15.751 7.3067 15.6655C7.43077 15.5692 7.54281 15.4572 7.7669 15.2331L17.1667 5.83332C18.0872 4.91285 18.0872 3.42046 17.1667 2.49999C16.2462 1.57951 14.7538 1.57951 13.8334 2.49999L4.43357 11.8998C4.20948 12.1238 4.09744 12.2359 4.00116 12.36C3.91564 12.4702 3.8395 12.5873 3.77353 12.7102C3.69926 12.8486 3.64237 12.9965 3.52861 13.2923L1.75 17.9167ZM1.75 17.9167L3.4651 13.4575C3.58783 13.1384 3.6492 12.9788 3.75445 12.9057C3.84643 12.8419 3.96025 12.8177 4.07025 12.8387C4.19611 12.8627 4.31699 12.9836 4.55874 13.2254L6.44131 15.1079C6.68306 15.3497 6.80393 15.4706 6.82797 15.5964C6.84897 15.7064 6.82482 15.8202 6.76095 15.9122C6.68787 16.0175 6.52832 16.0788 6.20922 16.2016L1.75 17.9167Z" stroke="#0A0D12" stroke-width="1.67" stroke-linecap="round" stroke-linejoin="round"/>
</svg>
