<svg width="141" height="140" viewBox="0 0 141 140" fill="none" xmlns="http://www.w3.org/2000/svg">
<path d="M0.5 70C0.5 31.3401 31.8401 0 70.5 0C109.16 0 140.5 31.3401 140.5 70C140.5 108.66 109.16 140 70.5 140C31.8401 140 0.5 108.66 0.5 70Z" fill="#F5F5F5"/>
<path d="M70.8048 46.1607C70.0193 46.1607 69.3819 45.5221 69.3819 44.7355V31.3199C69.3819 26.0414 65.0913 21.7473 59.8173 21.7473C54.5434 21.7473 50.2493 26.0414 50.2493 31.3199V44.7355C50.2493 45.5221 49.6166 46.1607 48.8311 46.1607C48.0456 46.1607 47.4082 45.5221 47.4082 44.7355V31.3199C47.4082 24.4728 52.9725 18.9004 59.8173 18.9004C66.6576 18.9004 72.2276 24.4728 72.2276 31.3199V44.7355C72.2276 45.5221 71.5902 46.1607 70.8048 46.1607Z" fill="#252B37"/>
<mask id="mask0_41448_18219" style="mask-type:luminance" maskUnits="userSpaceOnUse" x="29" y="35" width="63" height="80">
<path d="M29.2002 35.7305H91.7722V114.801H29.2002V35.7305Z" fill="white"/>
</mask>
<g mask="url(#mask0_41448_18219)">
<path d="M91.7649 111.293C91.7649 113.195 90.2113 114.747 88.3106 114.747H32.6505C30.7499 114.747 29.1963 113.195 29.1963 111.293L35.6687 39.2414C35.6687 37.343 37.2234 35.7871 39.1229 35.7871H81.8371C83.7377 35.7871 85.2913 37.343 85.2913 39.2414L91.7649 111.293Z" fill="#717680"/>
</g>
<path d="M97.4153 111.293C97.4153 113.195 95.8605 114.747 93.9656 114.747H38.2998C36.4003 114.747 34.8467 113.195 34.8467 111.293L41.3237 39.2414C41.3237 37.343 42.8727 35.7871 44.7733 35.7871H87.4921C89.3881 35.7871 90.9417 37.343 90.9417 39.2414L97.4153 111.293Z" fill="#A4A7AE"/>
<path d="M58.2422 44.7359C58.2422 46.5625 56.7638 48.0421 54.9441 48.0421C53.1198 48.0421 51.6426 46.5625 51.6426 44.7359C51.6426 42.9105 53.1198 41.4355 54.9441 41.4355C56.7638 41.4355 58.2422 42.9105 58.2422 44.7359Z" fill="#BFC1C6"/>
<path d="M80.6182 44.7359C80.6182 46.5625 79.1398 48.0421 77.3201 48.0421C75.4958 48.0421 74.0186 46.5625 74.0186 44.7359C74.0186 42.9105 75.4958 41.4355 77.3201 41.4355C79.1398 41.4355 80.6182 42.9105 80.6182 44.7359Z" fill="#BFC1C6"/>
<path d="M77.1173 46.1607C76.3318 46.1607 75.6978 45.5221 75.6978 44.7355V31.3199C75.6978 26.0414 71.4084 21.7473 66.1298 21.7473C60.8559 21.7473 56.5665 26.0414 56.5665 31.3199V44.7355C56.5665 45.5221 55.9291 46.1607 55.1436 46.1607C54.3581 46.1607 53.7207 45.5221 53.7207 44.7355V31.3199C53.7207 24.4728 59.2896 18.9004 66.1298 18.9004C72.9747 18.9004 78.5401 24.4728 78.5401 31.3199V44.7355C78.5401 45.5221 77.9027 46.1607 77.1173 46.1607Z" fill="#252B37"/>
<path d="M101.308 81.5666C100.522 81.5666 99.8848 80.9327 99.8848 80.1472V66.7316C99.8848 61.4519 95.5942 57.1578 90.3214 57.1578C85.0475 57.1578 80.7523 61.4519 80.7523 66.7316V80.1472C80.7523 80.9327 80.1149 81.5666 79.3294 81.5666C78.5485 81.5666 77.9111 80.9327 77.9111 80.1472V66.7316C77.9111 59.8844 83.4766 54.3086 90.3214 54.3086C97.1617 54.3086 102.731 59.8844 102.731 66.7316V80.1472C102.731 80.9327 102.093 81.5666 101.308 81.5666Z" fill="#252B37"/>
<path d="M116.618 111.293C116.618 113.195 115.064 114.746 113.165 114.746H69.5841C67.6835 114.746 66.1299 113.195 66.1299 111.293L66.1727 74.6523C66.1727 72.7505 67.7263 71.1992 69.6258 71.1992H112.341C114.241 71.1992 115.795 72.7505 115.795 74.6523L116.618 111.293Z" fill="#BFC1C6"/>
<mask id="mask1_41448_18219" style="mask-type:luminance" maskUnits="userSpaceOnUse" x="71" y="70" width="52" height="45">
<path d="M71.6338 70.9707H122.263V114.8H71.6338V70.9707Z" fill="white"/>
</mask>
<g mask="url(#mask1_41448_18219)">
<path d="M122.267 111.293C122.267 113.195 120.714 114.746 118.813 114.746H75.2335C73.3329 114.746 71.7793 113.195 71.7793 111.293L71.8209 74.6523C71.8209 72.7505 73.3757 71.1992 75.2752 71.1992H117.991C119.89 71.1992 121.444 72.7505 121.444 74.6523L122.267 111.293Z" fill="#E2E3E5"/>
</g>
<path d="M88.7498 80.148C88.7498 81.9734 87.2679 83.4484 85.4471 83.4484C83.6228 83.4484 82.1455 81.9734 82.1455 80.148C82.1455 78.3214 83.6228 76.8418 85.4471 76.8418C87.2667 76.8418 88.7498 78.3214 88.7498 80.148Z" fill="#BFC1C6"/>
<path d="M111.121 80.148C111.121 81.9734 109.643 83.4484 107.818 83.4484C105.999 83.4484 104.521 81.9734 104.521 80.148C104.521 78.3214 105.999 76.8418 107.818 76.8418C109.643 76.8418 111.121 78.3214 111.121 80.148Z" fill="#BFC1C6"/>
<path d="M107.62 81.5666C106.835 81.5666 106.197 80.9327 106.197 80.1472V66.7316C106.197 61.4519 101.907 57.1578 96.6328 57.1578C91.3589 57.1578 87.0694 61.4519 87.0694 66.7316V80.1472C87.0694 80.9327 86.432 81.5666 85.6465 81.5666C84.861 81.5666 84.2236 80.9327 84.2236 80.1472V66.7316C84.2236 59.8844 89.7891 54.3086 96.6328 54.3086C103.474 54.3086 109.043 59.8844 109.043 66.7316V80.1472C109.043 80.9327 108.406 81.5666 107.62 81.5666Z" fill="#252B37"/>
</svg>
