<svg width="19" height="14" viewBox="0 0 19 14" fill="none" xmlns="http://www.w3.org/2000/svg">
<path d="M1.68346 7.59431C1.56997 7.41461 1.51322 7.32476 1.48146 7.18617C1.4576 7.08207 1.4576 6.91791 1.48146 6.81381C1.51322 6.67522 1.56997 6.58537 1.68346 6.40567C2.62129 4.92069 5.41285 1.16666 9.66702 1.16666C13.9212 1.16666 16.7128 4.92069 17.6506 6.40567C17.7641 6.58537 17.8208 6.67522 17.8526 6.81381C17.8764 6.91791 17.8764 7.08207 17.8526 7.18617C17.8208 7.32476 17.7641 7.41461 17.6506 7.5943C16.7128 9.07929 13.9212 12.8333 9.66702 12.8333C5.41285 12.8333 2.62129 9.07929 1.68346 7.59431Z" stroke="#0A0D12" stroke-width="1.67" stroke-linecap="round" stroke-linejoin="round"/>
<path d="M9.66702 9.49999C11.0477 9.49999 12.167 8.3807 12.167 6.99999C12.167 5.61928 11.0477 4.49999 9.66702 4.49999C8.28631 4.49999 7.16702 5.61928 7.16702 6.99999C7.16702 8.3807 8.28631 9.49999 9.66702 9.49999Z" stroke="#0A0D12" stroke-width="1.67" stroke-linecap="round" stroke-linejoin="round"/>
</svg>
