<svg width="40" height="40" viewBox="0 0 40 40" fill="none" xmlns="http://www.w3.org/2000/svg">
<path d="M20 0.5C30.7696 0.5 39.5 9.23045 39.5 20C39.5 30.7696 30.7696 39.5 20 39.5C9.23045 39.5 0.5 30.7696 0.5 20C0.5 9.23045 9.23045 0.5 20 0.5Z" stroke="#D5D7DA"/>
<path d="M24.8937 21.302L25.4636 17.6809H21.9529V15.3272C21.9529 14.3371 22.4431 13.3696 24.0103 13.3696H25.6289V10.286C24.6863 10.1357 23.7339 10.0544 22.7793 10.0427C19.8898 10.0427 18.0034 11.7797 18.0034 14.9199V17.6809H14.8004V21.302H18.0034V30.0605H21.9529V21.302H24.8937Z" fill="#0A0D12"/>
</svg>
