<svg width="16" height="20" viewBox="0 0 16 20" fill="none" xmlns="http://www.w3.org/2000/svg">
<path d="M9.66665 1.89136V5.33348C9.66665 5.80018 9.66665 6.03354 9.75747 6.2118C9.83737 6.3686 9.96485 6.49609 10.1217 6.57598C10.2999 6.66681 10.5333 6.66681 11 6.66681H14.4421M9.66665 14.1667H4.66665M11.3333 10.8334H4.66665M14.6666 8.3236V14.3334C14.6666 15.7335 14.6666 16.4336 14.3942 16.9684C14.1545 17.4388 13.772 17.8212 13.3016 18.0609C12.7668 18.3334 12.0668 18.3334 10.6666 18.3334H5.33331C3.93318 18.3334 3.23312 18.3334 2.69834 18.0609C2.22793 17.8212 1.84548 17.4388 1.6058 16.9684C1.33331 16.4336 1.33331 15.7335 1.33331 14.3334V5.66675C1.33331 4.26662 1.33331 3.56655 1.6058 3.03177C1.84548 2.56137 2.22793 2.17892 2.69834 1.93923C3.23312 1.66675 3.93318 1.66675 5.33331 1.66675H8.00979C8.62127 1.66675 8.92701 1.66675 9.21473 1.73582C9.46982 1.79707 9.71368 1.89808 9.93736 2.03515C10.1897 2.18975 10.4058 2.40594 10.8382 2.83832L13.4951 5.49517C13.9275 5.92755 14.1436 6.14374 14.2982 6.39604C14.4353 6.61972 14.5363 6.86358 14.5976 7.11867C14.6666 7.40639 14.6666 7.71213 14.6666 8.3236Z" stroke="#414651" stroke-width="1.67" stroke-linecap="round" stroke-linejoin="round"/>
</svg>
