<svg width="18" height="20" viewBox="0 0 18 20" fill="none" xmlns="http://www.w3.org/2000/svg">
<path d="M6.82924 16.1427L7.31628 17.238C7.46106 17.5641 7.69734 17.8412 7.99647 18.0356C8.29559 18.23 8.6447 18.3335 9.00146 18.3334C9.35822 18.3335 9.70734 18.23 10.0065 18.0356C10.3056 17.8412 10.5419 17.5641 10.6866 17.238L11.1737 16.1427C11.3471 15.754 11.6387 15.43 12.007 15.2168C12.3777 15.0029 12.8065 14.9119 13.232 14.9566L14.4237 15.0834C14.7784 15.1209 15.1364 15.0547 15.4543 14.8929C15.7721 14.731 16.0362 14.4803 16.2144 14.1714C16.3929 13.8626 16.4779 13.5086 16.4592 13.1525C16.4405 12.7963 16.3188 12.4532 16.1089 12.1649L15.4033 11.1955C15.1521 10.8477 15.0178 10.4291 15.02 10.0001C15.0199 9.57224 15.1554 9.15537 15.407 8.80934L16.1126 7.8399C16.3225 7.55154 16.4442 7.20847 16.4629 6.85231C16.4816 6.49615 16.3966 6.1422 16.2181 5.83341C16.0399 5.52444 15.7758 5.27382 15.458 5.11194C15.1401 4.95005 14.7821 4.88386 14.4274 4.92138L13.2357 5.04823C12.8102 5.09292 12.3814 5.00185 12.0107 4.78804C11.6417 4.57363 11.35 4.24788 11.1774 3.85749L10.6866 2.76212C10.5419 2.43606 10.3056 2.15901 10.0065 1.96458C9.70734 1.77015 9.35822 1.66669 9.00146 1.66675C8.6447 1.66669 8.29559 1.77015 7.99647 1.96458C7.69734 2.15901 7.46106 2.43606 7.31628 2.76212L6.82924 3.85749C6.65668 4.24788 6.36497 4.57363 5.99591 4.78804C5.62525 5.00185 5.19647 5.09292 4.77091 5.04823L3.57554 4.92138C3.22081 4.88386 2.86282 4.95005 2.54497 5.11194C2.22711 5.27382 1.96305 5.52444 1.7848 5.83341C1.60632 6.1422 1.52128 6.49615 1.54002 6.85231C1.55876 7.20847 1.68046 7.55154 1.89035 7.8399L2.59591 8.80934C2.84753 9.15537 2.98302 9.57224 2.98295 10.0001C2.98302 10.4279 2.84753 10.8448 2.59591 11.1908L1.89035 12.1603C1.68046 12.4486 1.55876 12.7917 1.54002 13.1479C1.52128 13.504 1.60632 13.858 1.7848 14.1667C1.96323 14.4756 2.22732 14.726 2.54513 14.8879C2.86294 15.0498 3.22084 15.1161 3.57554 15.0788L4.76721 14.9519C5.19276 14.9072 5.62155 14.9983 5.99221 15.2121C6.36265 15.4259 6.65571 15.7517 6.82924 16.1427Z" stroke="#414651" stroke-width="1.67" stroke-linecap="round" stroke-linejoin="round"/>
<path d="M8.99997 12.5001C10.3807 12.5001 11.5 11.3808 11.5 10.0001C11.5 8.61937 10.3807 7.50008 8.99997 7.50008C7.61926 7.50008 6.49998 8.61937 6.49998 10.0001C6.49998 11.3808 7.61926 12.5001 8.99997 12.5001Z" stroke="#414651" stroke-width="1.67" stroke-linecap="round" stroke-linejoin="round"/>
</svg>
