<svg width="20" height="20" viewBox="0 0 20 20" fill="none" xmlns="http://www.w3.org/2000/svg">
<path fill-rule="evenodd" clip-rule="evenodd" d="M2.53125 9.37319C1.52708 9.37319 0.659167 8.50819 0.65625 7.37194L0.657917 7.34569C0.659306 7.31708 0.664583 7.26361 0.67375 7.18528C0.692917 7.02736 0.733333 6.76569 0.817917 6.37694C0.987083 5.59861 1.33083 4.31694 2.02833 2.34528C2.315 1.53403 2.98333 0.975275 3.79083 0.888608C7.93948 0.448589 12.123 0.448589 16.2717 0.888608C17.0792 0.975275 17.7475 1.53444 18.0342 2.34528C18.7317 4.31694 19.0758 5.59861 19.2446 6.37694C19.3292 6.76569 19.3696 7.02736 19.3888 7.18528C19.3966 7.24729 19.4024 7.30955 19.4062 7.37194C19.4033 8.50819 18.5354 9.37319 17.5312 9.37319C16.5254 9.37319 15.6562 8.50527 15.6562 7.36652C15.6562 7.20076 15.5904 7.04179 15.4732 6.92458C15.356 6.80737 15.197 6.74152 15.0312 6.74152C14.8655 6.74152 14.7065 6.80737 14.5893 6.92458C14.4721 7.04179 14.4062 7.20076 14.4062 7.36652C14.4062 8.50527 13.5371 9.37319 12.5312 9.37319C11.5254 9.37319 10.6562 8.50527 10.6562 7.36652C10.6562 7.20076 10.5904 7.04179 10.4732 6.92458C10.356 6.80737 10.197 6.74152 10.0312 6.74152C9.86549 6.74152 9.70652 6.80737 9.58931 6.92458C9.4721 7.04179 9.40625 7.20076 9.40625 7.36652C9.40625 8.50527 8.53708 9.37319 7.53125 9.37319C6.52542 9.37319 5.65625 8.50527 5.65625 7.36652C5.65625 7.20076 5.5904 7.04179 5.47319 6.92458C5.35598 6.80737 5.19701 6.74152 5.03125 6.74152C4.86549 6.74152 4.70652 6.80737 4.58931 6.92458C4.4721 7.04179 4.40625 7.20076 4.40625 7.36652C4.40625 8.50527 3.53708 9.37319 2.53125 9.37319ZM1.45792 10.429V12.4999C1.45792 14.3694 1.53292 15.7694 1.6175 16.7515C1.73583 18.1299 2.83 19.1403 4.18417 19.2232C5.42208 19.299 7.32833 19.3749 9.99958 19.3749C12.6704 19.3749 14.5771 19.299 15.815 19.2232C17.1692 19.1399 18.2633 18.1299 18.3817 16.7515C18.4662 15.7694 18.5413 14.3694 18.5413 12.4999V10.4524C18.217 10.5675 17.8753 10.626 17.5312 10.6253C16.4967 10.6253 15.5967 10.1086 15.0312 9.32194C14.4662 10.1082 13.5658 10.6253 12.5312 10.6253C11.4967 10.6253 10.5967 10.1086 10.0312 9.32194C9.46625 10.1082 8.56583 10.6253 7.53125 10.6253C6.49667 10.6253 5.59667 10.1086 5.03125 9.32194C4.46625 10.1082 3.56583 10.6253 2.53125 10.6253C2.16448 10.626 1.80069 10.5595 1.45792 10.429ZM9.99958 13.1249C9.03167 13.1249 8.3625 13.1957 7.91625 13.2757C7.61375 13.3299 7.38208 13.5799 7.3575 14.0174C7.32292 14.6353 7.29125 15.6061 7.29125 17.0832C7.29125 17.4165 7.55792 17.6857 7.8825 17.6911C8.52472 17.7022 9.23042 17.7079 9.99958 17.7082C10.769 17.7079 11.4747 17.7022 12.1167 17.6911C12.2751 17.6872 12.4258 17.6214 12.5363 17.5077C12.6468 17.3941 12.7084 17.2417 12.7079 17.0832C12.7079 15.6061 12.6762 14.6353 12.6417 14.0174C12.6175 13.5799 12.3854 13.3299 12.0833 13.2757C11.6367 13.1957 10.9675 13.1249 9.99958 13.1249Z" fill="#0A0D12"/>
</svg>
