<svg width="40" height="40" viewBox="0 0 40 40" fill="none" xmlns="http://www.w3.org/2000/svg">
<path d="M20 0.5C30.7696 0.5 39.5 9.23045 39.5 20C39.5 30.7696 30.7696 39.5 20 39.5C9.23045 39.5 0.5 30.7696 0.5 20C0.5 9.23045 9.23045 0.5 20 0.5Z" stroke="#D5D7DA"/>
<path d="M26.2759 14.2524C26.1433 14.1838 26.0141 14.1086 25.8889 14.0271C25.5249 13.7865 25.1912 13.503 24.8949 13.1826C24.1536 12.3344 23.8767 11.4739 23.7748 10.8715H23.7789C23.6937 10.3714 23.7289 10.0479 23.7342 10.0479H20.3578V23.1038C20.3578 23.2791 20.3578 23.4523 20.3504 23.6235C20.3504 23.6448 20.3484 23.6645 20.3472 23.6874C20.3472 23.6968 20.3472 23.7067 20.3451 23.7165C20.3451 23.7189 20.3451 23.7214 20.3451 23.7239C20.3095 24.1923 20.1594 24.6448 19.9078 25.0416C19.6563 25.4384 19.3111 25.7673 18.9027 25.9994C18.4769 26.2416 17.9954 26.3686 17.5056 26.368C15.9325 26.368 14.6576 25.0852 14.6576 23.5011C14.6576 21.9169 15.9325 20.6341 17.5056 20.6341C17.8034 20.6339 18.0994 20.6807 18.3825 20.773L18.3866 17.3351C17.5271 17.2241 16.6539 17.2924 15.8221 17.5358C14.9903 17.7791 14.218 18.1922 13.5538 18.7489C12.9718 19.2546 12.4826 19.8579 12.1081 20.5318C11.9655 20.7775 11.4278 21.7649 11.3627 23.3675C11.3217 24.2772 11.5949 25.2196 11.7251 25.6091V25.6173C11.807 25.8466 12.1244 26.6293 12.6417 27.2891C13.0588 27.8183 13.5516 28.2833 14.1043 28.6689V28.6607L14.1124 28.6689C15.747 29.7796 17.5593 29.7067 17.5593 29.7067C17.873 29.694 18.9239 29.7067 20.1174 29.1411C21.4411 28.5141 22.1947 27.5799 22.1947 27.5799C22.6761 27.0217 23.0589 26.3855 23.3267 25.6988C23.6322 24.8956 23.7342 23.9323 23.7342 23.5473V16.6209C23.7752 16.6454 24.3207 17.0063 24.3207 17.0063C24.3207 17.0063 25.1067 17.51 26.3329 17.8381C27.2126 18.0715 28.3979 18.1207 28.3979 18.1207V14.7688C27.9826 14.8139 27.1393 14.6828 26.2759 14.2524Z" fill="#0A0D12"/>
</svg>
