<svg width="17" height="20" viewBox="0 0 17 20" fill="none" xmlns="http://www.w3.org/2000/svg">
<path d="M12 4.99999V4.33332C12 3.3999 12 2.93319 11.8184 2.57667C11.6586 2.26307 11.4036 2.0081 11.09 1.84831C10.7335 1.66666 10.2668 1.66666 9.33335 1.66666H8.00002C7.0666 1.66666 6.59989 1.66666 6.24337 1.84831C5.92977 2.0081 5.6748 2.26307 5.51501 2.57667C5.33335 2.93319 5.33335 3.3999 5.33335 4.33332V4.99999M7.00002 9.58332V13.75M10.3334 9.58332V13.75M1.16669 4.99999H16.1667M14.5 4.99999V14.3333C14.5 15.7335 14.5 16.4335 14.2275 16.9683C13.9879 17.4387 13.6054 17.8212 13.135 18.0608C12.6002 18.3333 11.9002 18.3333 10.5 18.3333H6.83335C5.43322 18.3333 4.73316 18.3333 4.19838 18.0608C3.72797 17.8212 3.34552 17.4387 3.10584 16.9683C2.83335 16.4335 2.83335 15.7335 2.83335 14.3333V4.99999" stroke="#D9206E" stroke-width="1.67" stroke-linecap="round" stroke-linejoin="round"/>
</svg>
