<svg width="42" height="42" viewBox="0 0 42 42" fill="none" xmlns="http://www.w3.org/2000/svg">
<g clip-path="url(#clip0_31419_2074)">
<rect x="1.00098" y="1" width="40" height="40" rx="2.96296" fill="white"/>
<path d="M15.6804 15.4424H7.89545C6.9515 15.4424 6.18555 16.2269 6.18555 17.1958V24.9034C6.18555 25.8634 6.93635 26.6429 7.86983 26.6568L15.6748 26.657C16.6188 26.657 17.3865 25.8723 17.3865 24.9034L17.3903 17.1958C17.3903 16.2269 16.6241 15.4424 15.6804 15.4424ZM8.8207 25.7585L8.39584 25.7636C7.88142 25.7636 7.46614 25.3401 7.46614 24.8196L7.46302 24.7446V17.6269L7.46614 17.2432C7.48686 16.7397 7.86894 16.3329 8.37022 16.3329H9.23308C10.0166 16.3329 10.6502 17.0136 10.6502 17.8151C10.6502 18.2133 10.4943 18.5726 10.2421 18.8353L8.04027 21.0685L10.1049 23.1717C10.37 23.4466 10.5304 23.8073 10.5304 24.2014C10.5304 25.0611 9.76644 25.7585 8.8207 25.7585ZM15.168 25.752L11.3184 25.7509C11.3184 25.7509 11.7635 24.788 11.7635 24.1929C11.7635 23.4673 11.5209 22.8179 11.141 22.3892L9.82503 21.0467L11.1671 19.6596C11.5688 19.2822 11.8339 18.6145 11.8339 17.855C11.8339 17.2533 11.6677 16.7201 11.3986 16.3329H12.3319C13.1147 16.3329 13.749 17.0136 13.749 17.8151C13.749 18.2133 13.5937 18.5726 13.3422 18.8353L11.1811 21.0458L15.6681 25.6217C15.5251 25.7112 15.3464 25.752 15.168 25.752ZM16.107 24.3228L12.8911 21.0451L14.4225 19.4892C14.7346 19.0982 14.9334 18.5111 14.9334 17.855C14.9334 17.2497 14.764 16.7025 14.4938 16.3156L15.1784 16.3369C15.692 16.3369 16.1097 16.7591 16.1097 17.2811L16.107 24.3228Z" fill="#00529C"/>
<path d="M24.29 20.5237C24.3526 20.4611 24.4266 20.3805 24.5119 20.2818C24.597 20.1831 24.6777 20.0665 24.7538 19.932C24.83 19.7974 24.8951 19.6475 24.9488 19.4815C25.0027 19.3157 25.0297 19.1386 25.0297 18.9504C25.0297 18.583 24.9668 18.2401 24.8414 17.9218C24.7157 17.6036 24.523 17.3256 24.263 17.0879C24.003 16.8506 23.6782 16.6643 23.2881 16.5298C22.8982 16.3954 22.4431 16.3281 21.9233 16.3281H21.9091H20.4146H20.0256H18.4941V18.0423V23.9765V25.7412H22.2595C22.8062 25.7412 23.2834 25.6672 23.6916 25.5193C24.0993 25.3714 24.4379 25.1675 24.7068 24.9075C24.9757 24.6475 25.1751 24.345 25.3052 23.9999C25.4351 23.6548 25.5002 23.285 25.5002 22.8904C25.5002 22.3615 25.3792 21.891 25.1373 21.4784C24.8951 21.0662 24.6126 20.7478 24.29 20.5237ZM22.6251 18.053C22.7519 18.1013 22.8577 18.1642 22.9403 18.2432C23.1544 18.4487 23.2616 18.6942 23.2616 18.9798C23.2616 19.2389 23.2168 19.453 23.1277 19.6225C23.0384 19.7923 22.949 19.9217 22.8599 20.0109H20.2424V17.9418H21.8694C22.1744 17.9418 22.4255 17.9795 22.6251 18.053ZM22.3535 21.6399C22.8274 21.6399 23.1785 21.7626 23.4071 22.0077C23.6221 22.249 23.7304 22.5337 23.7304 22.8632C23.7304 23.2028 23.6076 23.4926 23.3621 23.7337C23.1163 23.9747 22.7127 24.0955 22.1501 24.0955H21.94H20.2424V21.6399H22.3535Z" fill="#00529C"/>
<path d="M31.8853 21.6869C32.1676 21.4942 32.4031 21.2701 32.5914 21.0145C32.7796 20.759 32.9184 20.4767 33.0082 20.1675C33.0978 19.858 33.1428 19.5421 33.1428 19.2193C33.1428 18.798 33.073 18.4103 32.9342 18.0561C32.795 17.7021 32.5867 17.3973 32.3089 17.1418C32.0308 16.8862 31.6835 16.6868 31.2667 16.5434C30.8498 16.4001 30.3679 16.3281 29.8212 16.3281H29.772H26.1501H26.1162V25.7412H27.8983V22.245H28.8919L31.3495 25.7412H33.4384L30.897 22.124C31.2733 22.0255 31.6028 21.8798 31.8853 21.6869ZM29.8346 17.9418C29.9466 17.9418 30.0525 17.9492 30.1532 17.9619C30.4708 18.0098 30.7304 18.1232 30.9305 18.3034C31.2027 18.5491 31.3388 18.8503 31.3388 19.2073C31.3388 19.3861 31.3096 19.5601 31.2517 19.7297C31.1936 19.8995 31.1022 20.0489 30.9772 20.1782C30.852 20.3078 30.6914 20.4125 30.4951 20.493C30.2986 20.5734 30.062 20.6135 29.7853 20.6135H27.8983V17.9418H29.8346Z" fill="#00529C"/>
<path d="M34.0669 16.3281V16.3308C34.0488 16.3304 34.0312 16.3281 34.0132 16.3281H33.998V16.3288V19.7791V22.2514V25.7412H35.8151V16.3281H34.0669Z" fill="#00529C"/>
</g>
<rect x="0.62963" y="0.62963" width="40.7407" height="40.7407" rx="8.37037" stroke="#D5D7DA" stroke-width="0.740741"/>
<defs>
<clipPath id="clip0_31419_2074">
<rect x="1" y="1" width="40" height="40" rx="8" fill="white"/>
</clipPath>
</defs>
</svg>
